<?xml version="1.0" encoding="UTF-8"?>
<svg width="223px" height="92px" viewBox="738 734 223 92" xmlns="http://www.w3.org/2000/svg" xmlns:xlink="http://www.w3.org/1999/xlink" version="1.1">
 <!-- Generated by Pixelmator Pro 1.7.1 -->
 <g id="group">
  <g id="group-1">
   <path id="Path" d="M788.1 771.2 C788 771.2 787.8 771.2 787.7 771.2 786.1 771 784.9 769.5 785.1 767.8 788.9 739.1 814.8 736.9 817.7 736.8 L818.4 736.8 C821.3 737 846.6 739.1 850.9 766.9 851.2 768.5 850 770.1 848.4 770.3 846.8 770.6 845.2 769.4 845 767.8 841.5 744.7 820.5 743 818.1 742.8 815.6 742.9 794.2 744.7 791.1 768.6 790.8 770.1 789.6 771.2 788.1 771.2 Z" fill="#393a3a" fill-opacity="1" stroke="none"/>
   <path id="Path-1" d="M848.5 825.5 L793.4 825.5 C788.6 825.5 784.6 821.6 784.6 816.7 L784.6 785.2 C784.6 783.5 785.9 782.2 787.6 782.2 789.3 782.2 790.6 783.5 790.6 785.2 L790.6 816.7 C790.6 818.2 791.8 819.5 793.4 819.5 L845.5 819.5 845.5 786.2 C845.5 784.5 846.8 783.2 848.5 783.2 850.2 783.2 851.5 784.5 851.5 786.2 L851.5 822.5 C851.5 824.1 850.1 825.5 848.5 825.5 Z" fill="#393a3a" fill-opacity="1" stroke="none"/>
   <path id="Path-2" d="M781.8 805.6 L748 805.6 C742.9 805.6 738.8 801.5 738.8 796.4 L738.8 766.4 C738.8 744.1 755 737.3 764.6 736.8 L765.2 736.8 C774.8 737.3 791 744.1 791 766.4 791 768.1 789.7 769.4 788 769.4 786.3 769.4 785 768.1 785 766.4 785 744.4 766.9 742.9 764.9 742.8 762.9 742.9 744.8 744.5 744.8 766.4 L744.8 796.4 C744.8 798.1 746.2 799.6 748 799.6 L781.8 799.6 C783.5 799.6 785 798.2 785 796.4 L785 786.1 C785 784.4 786.3 783.1 788 783.1 789.7 783.1 791 784.4 791 786.1 L791 796.4 C790.9 801.5 786.8 805.6 781.8 805.6 Z" fill="#393a3a" fill-opacity="1" stroke="none"/>
  </g>
  <path id="Path-3" d="M932.1 769.4 C929.2 769.4 926.8 771.1 925.6 773.5 L885.5 773.5 C884.3 771.1 881.9 769.4 879 769.4 876.1 769.4 873.7 771.1 872.5 773.5 L824.6 773.5 C823.4 771.1 821 769.4 818.1 769.4 815.2 769.4 812.8 771.1 811.6 773.5 L771.1 773.5 C769.9 771.1 767.5 769.4 764.6 769.4 760.6 769.4 757.3 772.6 757.3 776.7 757.3 780.7 760.5 784 764.6 784 767.5 784 769.9 782.3 771.1 779.9 L811.6 779.9 C812.8 782.3 815.2 784 818.1 784 821 784 823.4 782.3 824.6 779.9 L872.5 779.9 C873.7 782.3 876.1 784 879 784 881.9 784 884.3 782.3 885.5 779.9 L925.6 779.9 C926.8 782.3 929.2 784 932.1 784 936.1 784 939.4 780.8 939.4 776.7 939.4 772.6 936.1 769.4 932.1 769.4 Z" fill="#f8c037" fill-opacity="1" stroke="none"/>
  <g id="group-2">
   <path id="Path-4" d="M908.9 771.2 C907.4 771.2 906.1 770.1 905.9 768.6 902.8 744.7 881.3 742.9 878.9 742.8 876.5 742.9 855.5 744.7 852 767.8 851.7 769.4 850.2 770.6 848.6 770.3 847 770 845.8 768.5 846.1 766.9 850.3 739.1 875.7 737 878.6 736.8 L879.3 736.8 C882.2 737 908.2 739.1 911.9 767.8 912.1 769.4 911 770.9 909.3 771.2 909.1 771.2 909 771.2 908.9 771.2 Z" fill="#393a3a" fill-opacity="1" stroke="none"/>
   <path id="Path-5" d="M903.5 825.5 L848.4 825.5 C846.7 825.5 845.4 824.2 845.4 822.5 L845.4 786.2 C845.4 784.5 846.7 783.2 848.4 783.2 850.1 783.2 851.4 784.5 851.4 786.2 L851.4 819.5 903.5 819.5 C905 819.5 906.3 818.3 906.3 816.7 L906.3 785.2 C906.3 783.5 907.6 782.2 909.3 782.2 911 782.2 912.3 783.5 912.3 785.2 L912.3 816.7 C912.3 821.5 908.4 825.5 903.5 825.5 Z" fill="#393a3a" fill-opacity="1" stroke="none"/>
   <path id="Path-6" d="M949 805.6 L915.2 805.6 C910.1 805.6 906 801.5 906 796.4 L906 786.1 C906 784.4 907.3 783.1 909 783.1 910.7 783.1 912 784.4 912 786.1 L912 796.4 C912 798.1 913.4 799.6 915.2 799.6 L949 799.6 C950.7 799.6 952.2 798.2 952.2 796.4 L952.2 766.4 C952.2 744.4 934.1 742.9 932.1 742.8 930.1 742.9 912 744.5 912 766.4 912 768.1 910.7 769.4 909 769.4 907.3 769.4 906 768.1 906 766.4 906 744.1 922.2 737.3 931.8 736.8 L932.4 736.8 C942 737.3 958.2 744.1 958.2 766.4 L958.2 796.4 C958.2 801.5 954.1 805.6 949 805.6 Z" fill="#393a3a" fill-opacity="1" stroke="none"/>
  </g>
 </g>
</svg>
