<?xml version="1.0" encoding="UTF-8"?>
<svg width="168px" height="128px" viewBox="460 142 168 128" xmlns="http://www.w3.org/2000/svg" xmlns:xlink="http://www.w3.org/1999/xlink" version="1.1">
 <!-- Generated by Pixelmator Pro 1.7.1 -->
 <g id="group">
  <path id="Path" d="M506.7 269.2 C506.3 269.2 505.8 269.2 505.3 269.1 499.2 268.3 494.4 260 489.2 241.5 488.8 239.9 489.7 238.2 491.3 237.8 492.9 237.4 494.6 238.3 495 239.9 500.9 260.9 505 263 506.1 263.2 509.2 263.6 510.6 257.5 512.4 247.4 513 244.2 513.6 240.8 514.4 237.4 517.6 223.8 529.3 221.1 535.3 221.6 541.3 221.1 553.1 223.9 556.2 237.4 557 240.9 557.6 244.2 558.2 247.4 560.1 257.5 561.4 263.6 564.5 263.2 565 263.1 567.9 262.2 572 251.3 574.7 244 576.9 235.2 578.7 228.1 L579.3 225.9 C580.5 221.3 582.5 217.2 584.4 213.1 585.8 210.2 587.1 207.5 588.1 204.7 588.7 203.1 590.4 202.3 591.9 202.9 593.5 203.5 594.3 205.2 593.7 206.7 592.6 209.8 591.1 212.8 589.7 215.7 587.8 219.6 586 223.4 585 227.3 L584.4 229.5 C579.1 250.4 574.1 267.9 565.2 269.1 556.2 270.3 554.2 259.7 552.2 248.5 551.6 245.3 551 242.1 550.2 238.8 547.4 226.9 536.6 227.5 535.4 227.6 535.2 227.6 535 227.6 534.8 227.6 533.6 227.5 522.8 226.9 520 238.8 519.2 242.1 518.6 245.4 518 248.5 516.4 259.1 514.5 269.2 506.7 269.2 Z" fill="#393a3a" fill-opacity="1" stroke="none"/>
  <path id="Path-1" d="M480.7 210.6 C479.5 210.6 478.4 209.9 477.9 208.8 476.3 204.9 475.2 201.7 474.5 198.5 472.7 189.9 469.6 168.4 480.4 155.8 488.8 146 503.5 143.2 514.3 144.7 518.9 145.3 522.7 147 526 148.5 531.9 151.1 536.2 153 543.2 149.7 552.8 145.1 560.6 143.8 570.1 145.4 581.1 147.1 589.8 153 594 161.5 594.9 163.4 595.7 165.4 596.3 167.6 596.8 169.2 595.8 170.9 594.2 171.3 592.6 171.8 590.9 170.8 590.5 169.2 590 167.4 589.3 165.7 588.5 164.1 583.9 154.9 574.3 152.1 569 151.2 560.7 149.9 554.2 151 545.7 155 536.2 159.5 529.8 156.7 523.5 153.9 520.4 152.5 517.1 151.1 513.4 150.5 504.5 149.2 491.7 151.5 484.9 159.6 475.6 170.4 479.1 191.1 480.3 197.1 480.9 199.9 481.8 202.8 483.3 206.3 483.9 207.8 483.2 209.6 481.7 210.2 481.4 210.5 481 210.6 480.7 210.6 Z" fill="#393a3a" fill-opacity="1" stroke="none"/>
  <path id="Path-2" d="M488.8 187 C487.3 187 486 185.8 485.8 184.3 485 175.6 486.6 168.8 490.6 164.2 495.1 159 501.1 158.7 501.3 158.7 503 158.6 504.4 159.9 504.4 161.6 504.5 163.2 503.2 164.6 501.6 164.7 501.4 164.7 497.8 165 495 168.3 492.2 171.6 491.1 176.8 491.7 183.8 491.9 185.4 490.6 186.9 489 187.1 489 187 488.9 187 488.8 187 Z" fill="#393a3a" fill-opacity="1" stroke="none"/>
  <g id="group-1">
   <g id="group-2">
    <path id="Path-3" d="M488.6 204.5 C488.6 219.6 472.7 221.1 472.7 221.1 483.6 221.1 488.6 234.3 488.6 234.3 488.6 234.3 493.5 221.1 504.5 221.1 504.5 221.1 488.6 219.5 488.6 204.5 Z" fill="#769cd1" fill-opacity="1" stroke="none"/>
   </g>
  </g>
  <g id="group-3">
   <g id="group-4">
    <path id="Path-4" d="M468.4 234.6 C468.4 241.6 461 242.3 461 242.3 466.1 242.3 468.4 248.4 468.4 248.4 468.4 248.4 470.7 242.3 475.8 242.3 475.7 242.3 468.4 241.6 468.4 234.6 Z" fill="#769cd1" fill-opacity="1" stroke="none"/>
   </g>
  </g>
  <g id="group-5">
   <g id="group-6">
    <path id="Path-5" d="M617 161.7 C617 168.7 609.6 169.4 609.6 169.4 614.7 169.4 617 175.5 617 175.5 617 175.5 619.3 169.4 624.4 169.4 624.4 169.4 617 168.7 617 161.7 Z" fill="#769cd1" fill-opacity="1" stroke="none"/>
   </g>
  </g>
  <g id="group-7">
   <g id="group-8">
    <path id="Path-6" d="M595.2 174.1 C595.2 184.2 584.6 185.2 584.6 185.2 591.9 185.2 595.2 194 595.2 194 595.2 194 598.5 185.2 605.8 185.2 605.9 185.2 595.2 184.2 595.2 174.1 Z" fill="#769cd1" fill-opacity="1" stroke="none"/>
   </g>
  </g>
 </g>
</svg>
