<?xml version="1.0" encoding="UTF-8"?>
<svg width="121px" height="225px" viewBox="483 645 121 225" xmlns="http://www.w3.org/2000/svg" xmlns:xlink="http://www.w3.org/1999/xlink" version="1.1">
 <!-- Generated by Pixelmator Pro 1.7.1 -->
 <g id="group">
  <g id="group-1">
   <path id="Path" d="M504.3 842 L530.6 842 530.6 852.2 504.3 852.2 Z" fill="#769cd1" fill-opacity="1" stroke="none"/>
   <path id="Path-1" d="M529.4 867.7 L503.8 867.7 C503 867.7 502.2 867.4 501.7 866.8 501.1 866.2 500.8 865.4 500.8 864.6 L503.4 747.2 C503.4 745.6 504.8 744.3 506.4 744.3 L526.8 744.3 C528.4 744.3 529.8 745.6 529.8 747.2 L532.4 864.2 532.4 864.6 C532.4 866.4 531 867.7 529.4 867.7 Z M506.8 861.7 L526.3 861.7 523.8 750.3 509.3 750.3 Z" fill="#393a3a" fill-opacity="1" stroke="none"/>
   <path id="Path-2" d="M526.1 750.3 L506.4 750.3 C504.7 750.3 503.4 749 503.4 747.3 L503.4 737.1 C503.4 735.4 504.7 734.1 506.4 734.1 L526.1 734.1 C527.8 734.1 529.1 735.4 529.1 737.1 L529.1 747.3 C529.1 749 527.7 750.3 526.1 750.3 Z M509.4 744.3 L523.1 744.3 523.1 740.1 509.4 740.1 Z" fill="#393a3a" fill-opacity="1" stroke="none"/>
   <path id="Path-3" d="M516.2 740.2 C514.5 740.2 513.2 738.9 513.2 737.2 L513.2 708.3 C513.2 706.6 514.5 705.3 516.2 705.3 517.9 705.3 519.2 706.6 519.2 708.3 L519.2 737.2 C519.2 738.8 517.9 740.2 516.2 740.2 Z" fill="#393a3a" fill-opacity="1" stroke="none"/>
   <path id="Path-4" d="M516.3 711.3 C498.8 711.3 484.6 697.1 484.6 679.6 484.6 662.1 498.8 647.9 516.3 647.9 533.8 647.9 548 662.1 548 679.6 548 697.1 533.8 711.3 516.3 711.3 Z M516.3 653.9 C502.1 653.9 490.6 665.4 490.6 679.6 490.6 693.8 502.1 705.3 516.3 705.3 530.5 705.3 542 693.8 542 679.6 542 665.4 530.5 653.9 516.3 653.9 Z" fill="#393a3a" fill-opacity="1" stroke="none"/>
   <path id="Path-5" d="M536.4 679.6 C536.4 690.701 527.401 699.7 516.3 699.7 505.199 699.7 496.2 690.701 496.2 679.6 496.2 668.499 505.199 659.5 516.3 659.5 527.401 659.5 536.4 668.499 536.4 679.6 Z" fill="#769cd1" fill-opacity="1" stroke="none"/>
  </g>
  <g id="group-2">
   <path id="Path-6" d="M572.7 817.2 L599 817.2 599 852.3 572.7 852.3 Z" fill="#f8c037" fill-opacity="1" stroke="none"/>
   <path id="Path-7" d="M597.8 867.7 L572.2 867.7 C571.4 867.7 570.6 867.4 570.1 866.8 569.5 866.2 569.2 865.4 569.2 864.6 L571.8 747.2 C571.8 745.6 573.2 744.3 574.8 744.3 L595.2 744.3 C596.8 744.3 598.2 745.6 598.2 747.2 L600.8 864.2 600.8 864.6 C600.8 866.4 599.5 867.7 597.8 867.7 Z M575.3 861.7 L594.8 861.7 592.3 750.3 577.8 750.3 Z" fill="#393a3a" fill-opacity="1" stroke="none"/>
   <path id="Path-8" d="M594.6 750.3 L574.9 750.3 C573.2 750.3 571.9 749 571.9 747.3 L571.9 737.1 C571.9 735.4 573.2 734.1 574.9 734.1 L594.6 734.1 C596.3 734.1 597.6 735.4 597.6 737.1 L597.6 747.3 C597.6 749 596.2 750.3 594.6 750.3 Z M577.8 744.3 L591.5 744.3 591.5 740.1 577.8 740.1 Z" fill="#393a3a" fill-opacity="1" stroke="none"/>
   <path id="Path-9" d="M584.7 740.2 C583 740.2 581.7 738.9 581.7 737.2 L581.7 695.7 561.4 678.5 C560.8 678 560.4 677.2 560.3 676.3 560.3 675.5 560.6 674.6 561.2 674 L587.5 648.6 C588.7 647.4 590.6 647.5 591.7 648.7 592.8 649.9 592.8 651.8 591.6 652.9 L567.7 676 586.6 691.9 C587.3 692.5 587.7 693.3 587.7 694.2 L587.7 737.1 C587.7 738.8 586.3 740.2 584.7 740.2 Z" fill="#393a3a" fill-opacity="1" stroke="none"/>
  </g>
 </g>
</svg>
