<?xml version="1.0" encoding="UTF-8"?>
<svg width="264px" height="161px" viewBox="101 693 264 161" xmlns="http://www.w3.org/2000/svg" xmlns:xlink="http://www.w3.org/1999/xlink" version="1.1">
 <!-- Generated by Pixelmator Pro 1.7.1 -->
 <g id="group">
  <g id="group-1">
   <path id="Path" d="M130.1 735 L123 735 C121.3 735 120 733.7 120 732 120 730.3 121.3 729 123 729 L130.1 729 C131.8 729 133.1 730.3 133.1 732 133.1 733.7 131.8 735 130.1 735 Z" fill="#393a3a" fill-opacity="1" stroke="none"/>
   <path id="Path-1" d="M111.4 735 L104.3 735 C102.6 735 101.3 733.7 101.3 732 101.3 730.3 102.6 729 104.3 729 L111.4 729 C113.1 729 114.4 730.3 114.4 732 114.4 733.7 113 735 111.4 735 Z" fill="#393a3a" fill-opacity="1" stroke="none"/>
   <path id="Path-2" d="M117.2 747.9 C115.5 747.9 114.2 746.6 114.2 744.9 L114.2 737.8 C114.2 736.1 115.5 734.8 117.2 734.8 118.9 734.8 120.2 736.1 120.2 737.8 L120.2 744.9 C120.2 746.5 118.9 747.9 117.2 747.9 Z" fill="#393a3a" fill-opacity="1" stroke="none"/>
   <path id="Path-3" d="M117.2 729.1 C115.5 729.1 114.2 727.8 114.2 726.1 L114.2 719 C114.2 717.3 115.5 716 117.2 716 118.9 716 120.2 717.3 120.2 719 L120.2 726.1 C120.2 727.8 118.9 729.1 117.2 729.1 Z" fill="#393a3a" fill-opacity="1" stroke="none"/>
  </g>
  <g id="group-2">
   <path id="Path-4" d="M358.9 760.8 L351.8 760.8 C350.1 760.8 348.8 759.5 348.8 757.8 348.8 756.1 350.1 754.8 351.8 754.8 L358.9 754.8 C360.6 754.8 361.9 756.1 361.9 757.8 361.9 759.5 360.6 760.8 358.9 760.8 Z" fill="#393a3a" fill-opacity="1" stroke="none"/>
   <path id="Path-5" d="M340.2 760.8 L333.1 760.8 C331.4 760.8 330.1 759.5 330.1 757.8 330.1 756.1 331.4 754.8 333.1 754.8 L340.2 754.8 C341.9 754.8 343.2 756.1 343.2 757.8 343.2 759.5 341.8 760.8 340.2 760.8 Z" fill="#393a3a" fill-opacity="1" stroke="none"/>
   <path id="Path-6" d="M346 773.7 C344.3 773.7 343 772.4 343 770.7 L343 763.6 C343 761.9 344.3 760.6 346 760.6 347.7 760.6 349 761.9 349 763.6 L349 770.7 C349 772.4 347.7 773.7 346 773.7 Z" fill="#393a3a" fill-opacity="1" stroke="none"/>
   <path id="Path-7" d="M346 755 C344.3 755 343 753.7 343 752 L343 744.9 C343 743.2 344.3 741.9 346 741.9 347.7 741.9 349 743.2 349 744.9 L349 752 C349 753.6 347.7 755 346 755 Z" fill="#393a3a" fill-opacity="1" stroke="none"/>
  </g>
  <g id="group-3">
   <g id="group-4">
    <path id="Path-8" d="M198.5 699.8 C184.2 699.8 172.7 711.4 172.7 725.6 L172.7 805.8 C172.7 820.1 184.3 831.6 198.5 831.6 212.8 831.6 224.3 820 224.3 805.8 L224.3 725.6 C224.4 711.3 212.8 699.8 198.5 699.8 Z" fill="#ffffff" fill-opacity="1" stroke="none"/>
    <path id="Path-9" d="M198.5 834.7 C182.6 834.7 169.7 821.8 169.7 805.9 L169.7 725.7 C169.7 709.8 182.6 696.9 198.5 696.9 214.4 696.9 227.3 709.8 227.3 725.7 L227.3 805.9 C227.4 821.8 214.4 834.7 198.5 834.7 Z M198.5 702.8 C185.9 702.8 175.7 713 175.7 725.6 L175.7 805.8 C175.7 818.4 185.9 828.6 198.5 828.6 211.1 828.6 221.3 818.4 221.3 805.8 L221.3 725.6 C221.4 713 211.1 702.8 198.5 702.8 Z" fill="#393a3a" fill-opacity="1" stroke="none"/>
   </g>
   <g id="group-5">
    <path id="Path-10" d="M172.7 765.7 L224.4 765.7 Z" fill="#ffffff" fill-opacity="1" stroke="none"/>
    <path id="Path-11" d="M224.4 768.7 L172.7 768.7 C171 768.7 169.7 767.4 169.7 765.7 169.7 764 171 762.7 172.7 762.7 L224.4 762.7 C226.1 762.7 227.4 764 227.4 765.7 227.4 767.4 226 768.7 224.4 768.7 Z" fill="#393a3a" fill-opacity="1" stroke="none"/>
   </g>
   <g id="group-6">
    <path id="Path-12" d="M180.7 757.7 L180.7 725.6 C180.7 715.8 188.7 707.8 198.5 707.8 208.3 707.8 216.3 715.8 216.3 725.6 L216.3 757.7 Z" fill="#769cd1" fill-opacity="1" stroke="none"/>
   </g>
  </g>
  <g id="group-7">
   <g id="group-8">
    <path id="Path-13" d="M323.7 808.2 C323.7 831.672 304.672 850.7 281.2 850.7 257.728 850.7 238.7 831.672 238.7 808.2 238.7 784.728 257.728 765.7 281.2 765.7 304.672 765.7 323.7 784.728 323.7 808.2 Z" fill="#ffffff" fill-opacity="1" stroke="none"/>
    <path id="Path-14" d="M281.3 853.8 C264.1 853.8 248.6 844.3 240.8 829 229.4 806.7 238.2 779.2 260.5 767.8 266.9 764.5 274.1 762.8 281.2 762.8 298.4 762.8 313.9 772.3 321.7 787.6 327.2 798.4 328.2 810.7 324.5 822.3 320.8 833.9 312.8 843.3 301.9 848.8 295.6 852 288.4 853.8 281.3 853.8 Z M281.2 768.7 C274.9 768.7 268.9 770.2 263.2 773.1 243.8 783 236.1 806.9 246.1 826.3 252.9 839.6 266.4 847.8 281.3 847.8 287.6 847.8 293.6 846.3 299.3 843.4 308.7 838.6 315.6 830.4 318.9 820.4 322.2 810.4 321.3 799.7 316.5 790.3 309.6 777 296.1 768.7 281.2 768.7 Z" fill="#393a3a" fill-opacity="1" stroke="none"/>
   </g>
   <g id="group-9">
    <path id="Path-15" d="M261.8 770.4 L300.6 846 Z" fill="#ffffff" fill-opacity="1" stroke="none"/>
    <path id="Path-16" d="M300.6 849.1 C299.5 849.1 298.5 848.5 297.9 847.5 L259.1 771.9 C258.3 770.4 258.9 768.6 260.4 767.9 261.9 767.1 263.7 767.7 264.4 769.2 L303.2 844.8 C304 846.3 303.4 848.1 301.9 848.8 301.5 849 301.1 849.1 300.6 849.1 Z" fill="#393a3a" fill-opacity="1" stroke="none"/>
   </g>
   <g id="group-10">
    <g id="group-11">
     <path id="Path-17" d="M281.3 842.8 C268.3 842.8 256.5 835.6 250.6 824 246.4 815.8 245.6 806.5 248.5 797.7 250.5 791.5 254.1 786.2 258.9 782.1 L289.5 841.9 C286.8 842.4 284 842.8 281.3 842.8 Z" fill="#f8c037" fill-opacity="1" stroke="none"/>
    </g>
   </g>
  </g>
 </g>
</svg>
