<?xml version="1.0" encoding="UTF-8"?>
<svg width="209px" height="207px" viewBox="1082 660 209 207" xmlns="http://www.w3.org/2000/svg" xmlns:xlink="http://www.w3.org/1999/xlink" version="1.1">
 <!-- Generated by Pixelmator Pro 1.7.1 -->
 <g id="group">
  <g id="group-1">
   <g id="group-2">
    <path id="Path" d="M1143.4 708 C1143.4 711.3 1143.4 715.8 1138.8 715.8 1133.5 715.8 1131.8 708.4 1131.8 708.1 1131.8 708 1131.8 708 1131.8 707.9 L1131.8 689.6 C1131.8 685.4 1131.4 684.2 1131 683.8 1130.8 683.6 1130.4 683.7 1129.7 683.8 1129.2 683.9 1128.7 683.9 1128.2 683.9 1124.8 683.9 1123.4 681.5 1123.3 681.4 1123.2 681.2 1123.2 681.1 1123.2 680.9 1123.2 680.7 1123.3 680.4 1123.5 680.2 1124.1 679.6 1124.2 678.6 1124.3 677.4 1124.5 674.6 1124.9 670.8 1133 670.8 1142.7 670.8 1143.5 677.7 1143.5 679.8 1143.5 680.4 1143.4 680.7 1143.4 680.7 L1143.4 700.6 C1143.4 702.2 1143.4 703.6 1143.5 704.9 1143.3 706 1143.4 707 1143.4 708 Z" fill="#769cd1" fill-opacity="1" stroke="none"/>
   </g>
   <path id="Path-1" d="M1134 742.3 L1148.4 742.3 1148.4 866.4 1134 866.4 Z" fill="#f8c037" fill-opacity="1" stroke="none"/>
   <path id="Path-2" d="M1148.4 866.1 C1146.7 866.1 1145.4 864.8 1145.4 863.1 L1145.4 742.3 C1145.4 741.6 1145.7 740.8 1146.2 740.3 L1163 721.6 1163 673 C1163 671.3 1164.3 670 1166 670 1167.7 670 1169 671.3 1169 673 L1169 722.8 C1169 723.5 1168.7 724.3 1168.2 724.8 L1151.4 743.5 1151.4 863.1 C1151.4 864.7 1150.1 866.1 1148.4 866.1 Z" fill="#393a3a" fill-opacity="1" stroke="none"/>
   <path id="Path-3" d="M1166 716.7 L1146.1 716.7 C1144.4 716.7 1143.1 715.4 1143.1 713.7 L1143.1 673 C1143.1 671.3 1144.4 670 1146.1 670 L1166 670 C1167.7 670 1169 671.3 1169 673 L1169 713.8 C1169 715.4 1167.7 716.7 1166 716.7 Z M1149.1 710.7 L1163 710.7 1163 676 1149.1 676 Z" fill="#393a3a" fill-opacity="1" stroke="none"/>
   <g id="group-3">
    <path id="Path-4" d="M1166 688.8 L1148.4 688.8 C1146.7 688.8 1145.4 687.5 1145.4 685.8 1145.4 684.1 1146.7 682.8 1148.4 682.8 L1166 682.8 C1167.7 682.8 1169 684.1 1169 685.8 1169 687.5 1167.7 688.8 1166 688.8 Z" fill="#393a3a" fill-opacity="1" stroke="none"/>
    <path id="Path-5" d="M1166 703.8 L1148.4 703.8 C1146.7 703.8 1145.4 702.5 1145.4 700.8 1145.4 699.1 1146.7 697.8 1148.4 697.8 L1166 697.8 C1167.7 697.8 1169 699.1 1169 700.8 1169 702.5 1167.7 703.8 1166 703.8 Z" fill="#393a3a" fill-opacity="1" stroke="none"/>
   </g>
  </g>
  <g id="group-4">
   <path id="Path-6" d="M1245.5 866.1 L1193.5 866.1 C1192.7 866.1 1191.9 865.8 1191.3 865.2 1190.7 864.6 1190.4 863.8 1190.5 863 L1199.2 705.2 C1199.3 703.6 1200.6 702.4 1202.2 702.4 L1236.9 702.4 C1238.5 702.4 1239.8 703.6 1239.9 705.2 L1248.6 863 C1248.6 863.8 1248.3 864.6 1247.8 865.2 1247.3 865.8 1246.3 866.1 1245.5 866.1 Z M1196.6 860.1 L1242.3 860.1 1234 708.3 1205 708.3 Z" fill="#393a3a" fill-opacity="1" stroke="none"/>
   <path id="Path-7" d="M1237.1 708.3 L1202.1 708.3 C1200.4 708.3 1199.1 707 1199.1 705.3 L1199.1 692.4 C1199.1 690.7 1200.4 689.4 1202.1 689.4 L1237.1 689.4 C1238.8 689.4 1240.1 690.7 1240.1 692.4 L1240.1 705.3 C1240.1 707 1238.8 708.3 1237.1 708.3 Z M1205.1 702.3 L1234.1 702.3 1234.1 695.4 1205.1 695.4 Z" fill="#393a3a" fill-opacity="1" stroke="none"/>
   <path id="Path-8" d="M1229.6 695.4 L1209.6 695.4 C1207.9 695.4 1206.6 694.1 1206.6 692.4 L1206.6 673 C1206.6 671.3 1207.9 670 1209.6 670 L1229.6 670 C1231.3 670 1232.6 671.3 1232.6 673 L1232.6 692.5 C1232.6 694.1 1231.3 695.4 1229.6 695.4 Z M1212.6 689.4 L1226.6 689.4 1226.6 676 1212.6 676 Z" fill="#393a3a" fill-opacity="1" stroke="none"/>
   <path id="Path-9" d="M1244.8 854.1 L1194.1 854.1 C1192.4 854.1 1191.1 852.8 1191.1 851.1 1191.1 849.4 1192.4 848.1 1194.1 848.1 L1244.8 848.1 C1246.5 848.1 1247.8 849.4 1247.8 851.1 1247.8 852.8 1246.5 854.1 1244.8 854.1 Z" fill="#393a3a" fill-opacity="1" stroke="none"/>
   <path id="Path-10" d="M1227.9 745.9 L1219.5 745.9 1211.1 745.9 1206.9 822.4 1219.5 822.4 1232.1 822.4 Z" fill="#769cd1" fill-opacity="1" stroke="none"/>
  </g>
  <g id="group-5">
   <path id="Path-11" d="M1111.3 729.1 L1104.2 729.1 C1102.5 729.1 1101.2 727.8 1101.2 726.1 1101.2 724.4 1102.5 723.1 1104.2 723.1 L1111.3 723.1 C1113 723.1 1114.3 724.4 1114.3 726.1 1114.3 727.8 1113 729.1 1111.3 729.1 Z" fill="#393a3a" fill-opacity="1" stroke="none"/>
   <path id="Path-12" d="M1092.6 729.1 L1085.5 729.1 C1083.8 729.1 1082.5 727.8 1082.5 726.1 1082.5 724.4 1083.8 723.1 1085.5 723.1 L1092.6 723.1 C1094.3 723.1 1095.6 724.4 1095.6 726.1 1095.6 727.8 1094.2 729.1 1092.6 729.1 Z" fill="#393a3a" fill-opacity="1" stroke="none"/>
   <path id="Path-13" d="M1098.4 742 C1096.7 742 1095.4 740.7 1095.4 739 L1095.4 732 C1095.4 730.3 1096.7 729 1098.4 729 1100.1 729 1101.4 730.3 1101.4 732 L1101.4 739.1 C1101.4 740.7 1100.1 742 1098.4 742 Z" fill="#393a3a" fill-opacity="1" stroke="none"/>
   <path id="Path-14" d="M1098.4 723.3 C1096.7 723.3 1095.4 722 1095.4 720.3 L1095.4 713.2 C1095.4 711.5 1096.7 710.2 1098.4 710.2 1100.1 710.2 1101.4 711.5 1101.4 713.2 L1101.4 720.3 C1101.4 721.9 1100.1 723.3 1098.4 723.3 Z" fill="#393a3a" fill-opacity="1" stroke="none"/>
  </g>
  <g id="group-6">
   <path id="Path-15" d="M1284.8 682.6 L1277.7 682.6 C1276 682.6 1274.7 681.3 1274.7 679.6 1274.7 677.9 1276 676.6 1277.7 676.6 L1284.8 676.6 C1286.5 676.6 1287.8 677.9 1287.8 679.6 1287.8 681.3 1286.5 682.6 1284.8 682.6 Z" fill="#393a3a" fill-opacity="1" stroke="none"/>
   <path id="Path-16" d="M1266.1 682.6 L1259 682.6 C1257.3 682.6 1256 681.3 1256 679.6 1256 677.9 1257.3 676.6 1259 676.6 L1266.1 676.6 C1267.8 676.6 1269.1 677.9 1269.1 679.6 1269.1 681.3 1267.7 682.6 1266.1 682.6 Z" fill="#393a3a" fill-opacity="1" stroke="none"/>
   <path id="Path-17" d="M1271.9 695.5 C1270.2 695.5 1268.9 694.2 1268.9 692.5 L1268.9 685.4 C1268.9 683.7 1270.2 682.4 1271.9 682.4 1273.6 682.4 1274.9 683.7 1274.9 685.4 L1274.9 692.5 C1274.9 694.2 1273.5 695.5 1271.9 695.5 Z" fill="#393a3a" fill-opacity="1" stroke="none"/>
   <path id="Path-18" d="M1271.9 676.7 C1270.2 676.7 1268.9 675.4 1268.9 673.7 L1268.9 666.6 C1268.9 664.9 1270.2 663.6 1271.9 663.6 1273.6 663.6 1274.9 664.9 1274.9 666.6 L1274.9 673.7 C1274.9 675.4 1273.5 676.7 1271.9 676.7 Z" fill="#393a3a" fill-opacity="1" stroke="none"/>
  </g>
 </g>
</svg>
